<svg xmlns="http://www.w3.org/2000/svg" width="41" height="41" viewBox="0 0 41 41" fill="none">
<path d="M33.8929 40.35C33.5689 40.35 33.2449 40.3328 32.9209 40.2984C32.5969 40.264 32.2566 40.2123 31.9002 40.1435C29.6969 39.6962 27.7042 38.922 25.9221 37.8209C24.14 36.7199 22.5361 35.4295 21.1104 33.95C19.7171 32.5048 18.4373 30.9736 17.2708 29.3564C16.1368 27.7392 15.0999 26.1908 14.1602 24.7113C13.2206 23.1973 12.3457 21.8726 11.5357 20.7371C11.4709 20.565 11.3899 20.5134 11.2927 20.5822C11.2279 20.6511 11.1955 20.6855 11.1955 20.6855C10.4826 22.1306 9.8184 23.4898 9.20277 24.7629C8.61954 26.0016 8.18211 26.9994 7.8905 27.7564C7.63128 28.5134 7.50168 29.0467 7.50168 29.3564C7.50168 29.8381 7.67989 30.079 8.03631 30.079C8.48993 30.079 8.97596 29.7521 9.49439 29.0984C9.85081 28.651 10.1748 28.2381 10.4664 27.8597C10.7905 27.4468 11.0659 27.2747 11.2927 27.3435C11.3251 27.3779 11.3413 27.4295 11.3413 27.4984C11.3413 27.6704 11.2279 27.9113 11.0011 28.2209C10.7743 28.4962 10.6447 28.651 10.6122 28.6855C10.3854 29.0295 10.0776 29.4941 9.6888 30.079C9.33238 30.664 8.94356 31.1801 8.52233 31.6274C8.13351 32.1091 7.71229 32.35 7.25866 32.35C7.19386 32.35 6.99945 32.3156 6.67543 32.2467C6.38382 32.1779 6.0922 32.0919 5.80058 31.9887C5.54137 31.8855 5.39556 31.765 5.36316 31.6274C5.29836 30.9736 5.44416 30.0618 5.80058 28.8919C6.1894 27.6876 6.70783 26.3629 7.35587 24.9177C8.00391 23.4726 8.66814 22.0618 9.34858 20.6855C8.83015 20.5478 8.45753 20.4274 8.23072 20.3242C7.9067 20.0833 7.74469 19.7564 7.74469 19.3435C7.74469 18.9994 7.8743 18.6898 8.13351 18.4145C8.39273 18.1392 8.78155 18.0016 9.29998 18.0016C9.46198 18.0016 9.6564 18.036 9.88321 18.1048C10.11 18.1736 10.2882 18.2941 10.4178 18.4661C10.9687 17.4338 11.4547 16.4876 11.8759 15.6274C12.3295 14.7672 12.6536 14.0962 12.848 13.6145C13.0424 13.236 13.172 12.9263 13.2368 12.6855C13.3016 12.4102 13.334 12.2037 13.334 12.0661C13.334 11.8597 13.3016 11.6876 13.2368 11.55C13.3016 11.1371 13.5284 10.5865 13.9172 9.89836C14.3385 9.21019 14.8569 8.52202 15.4725 7.83385C16.0882 7.14568 16.7524 6.57793 17.4652 6.13062C18.1781 5.6489 18.8423 5.40804 19.4579 5.40804C19.6523 5.40804 19.944 5.47686 20.3328 5.61449C20.754 5.71772 21.1428 5.88976 21.4992 6.13062C21.8881 6.37148 22.1311 6.71557 22.2283 7.16288C22.2607 7.2661 22.2769 7.36933 22.2769 7.47256C22.2769 7.57578 22.2445 7.6274 22.1797 7.6274C22.1149 7.6274 22.0177 7.61019 21.8881 7.57578C21.7909 7.50697 21.7099 7.47256 21.6451 7.47256C20.7378 7.47256 19.7171 8.0575 18.5831 9.2274C17.4814 10.3629 16.3474 11.8252 15.1809 13.6145C14.0468 15.4037 12.9776 17.2618 11.9731 19.1887C12.1351 19.2231 12.3133 19.2747 12.5078 19.3435C12.7346 19.3779 12.9938 19.3951 13.2854 19.3951C13.415 19.3951 13.5284 19.3951 13.6256 19.3951C13.7552 19.3951 13.8848 19.3779 14.0144 19.3435C16.0881 19.1027 18.1943 18.6726 20.3328 18.0532C22.5037 17.4338 24.5288 16.6252 26.4081 15.6274C28.2874 14.6295 29.8427 13.4597 31.074 12.1177C32.208 10.8446 32.7751 9.53707 32.7751 8.19514C32.7751 7.19729 32.4186 6.26826 31.7058 5.40804C30.993 4.54783 29.8751 3.89406 28.3522 3.44675C27.445 3.17148 26.4081 2.96503 25.2417 2.8274C24.1076 2.68976 22.8763 2.62094 21.5478 2.62094C19.4741 2.62094 17.3356 2.81019 15.1323 3.18869C12.9614 3.56718 10.9201 4.15213 9.00836 4.94353C7.09665 5.70051 5.49277 6.66395 4.1967 7.83385C2.90062 9.00374 2.12298 10.3973 1.86377 12.0145C1.76656 12.8403 1.91237 13.4941 2.30119 13.9758C2.69001 14.4575 3.15984 14.836 3.71067 15.1113C4.2939 15.3521 4.74753 15.5758 5.07154 15.7822C5.29836 15.9887 5.41176 16.1607 5.41176 16.2984C5.41176 16.5392 5.20115 16.6252 4.77993 16.5564C4.3263 16.4532 3.75927 16.2123 3.07883 15.8338C2.4308 15.4554 1.84757 14.9392 1.32914 14.2855C0.843111 13.5973 0.600098 12.8059 0.600098 11.9113C0.600098 11.7736 0.600098 11.636 0.600098 11.4984C0.632499 11.3607 0.664901 11.2231 0.697303 11.0855C0.697303 11.0511 0.681102 10.9478 0.6487 10.7758C0.6487 10.5693 0.6487 10.3973 0.6487 10.2597C0.843111 9.19299 1.32914 8.19514 2.10678 7.26611C2.91683 6.30266 3.82407 5.45965 4.82853 4.73707C5.86539 3.98008 6.82124 3.37793 7.69609 2.93062C9.21897 2.13922 11.0497 1.51987 13.1882 1.07256C15.3267 0.590836 17.5624 0.349976 19.8954 0.349976C21.321 0.349976 22.7305 0.453202 24.1238 0.659655C25.5495 0.866106 26.9265 1.19299 28.255 1.6403C30.1019 2.29406 31.5276 3.30912 32.5321 4.68546C33.5689 6.0274 34.0387 7.43815 33.9415 8.91772C33.8443 10.3285 33.3745 11.6016 32.5321 12.7371C31.722 13.8726 30.669 14.8704 29.3729 15.7306C28.1092 16.5564 26.6997 17.279 25.1444 17.8984C23.6216 18.4833 22.0825 18.965 20.5272 19.3435C19.2635 19.6188 17.9351 19.8424 16.5418 20.0145C15.1485 20.1865 13.8362 20.307 12.605 20.3758C13.9982 22.1994 15.3753 24.0403 16.7362 25.8984C18.1295 27.722 19.6037 29.4424 21.159 31.0597C22.7467 32.6769 24.4802 34.0532 26.3595 35.1887C28.2388 36.3586 30.3611 37.1844 32.7265 37.6661C33.2125 37.7693 33.7147 37.8209 34.2331 37.8209C35.0756 37.8209 35.9018 37.6833 36.7119 37.408C37.5543 37.1328 38.251 36.7027 38.8018 36.1177C39.3526 35.5328 39.628 34.7586 39.628 33.7951C39.628 33.6231 39.6118 33.451 39.5794 33.279C39.5794 33.107 39.5632 32.9349 39.5308 32.7629C39.5308 32.6941 39.5146 32.6424 39.4822 32.608C39.4822 32.5736 39.4822 32.5392 39.4822 32.5048C39.4822 32.1951 39.5956 32.0403 39.8225 32.0403C40.1465 32.0403 40.3571 32.2984 40.4543 32.8145C40.5515 33.3306 40.6001 33.8123 40.6001 34.2597C40.6001 34.7758 40.5515 35.2575 40.4543 35.7048C40.3895 36.1521 40.2923 36.565 40.1627 36.9435C39.8711 37.907 39.1258 38.7156 37.9269 39.3693C36.7605 40.0231 35.4158 40.35 33.8929 40.35Z" fill="#F5F5F5"/>
</svg>